<svg width="1440" height="900" viewBox="0 0 1440 900" fill="none" xmlns="http://www.w3.org/2000/svg">
  <rect width="1440" height="900" rx="48" fill="#080808"/>
  <rect width="1440" height="900" rx="48" fill="url(#bg)"/>
  <circle cx="1120" cy="152" r="210" fill="url(#glow1)"/>
  <circle cx="240" cy="726" r="280" fill="url(#glow2)"/>
  <rect x="88" y="86" width="1264" height="728" rx="36" fill="rgba(255,255,255,0.03)" stroke="rgba(255,255,255,0.08)"/>
  <rect x="146" y="146" width="360" height="608" rx="42" fill="#0E1212" stroke="rgba(255,255,255,0.08)"/>
  <rect x="558" y="146" width="734" height="132" rx="28" fill="#101515" stroke="rgba(255,255,255,0.08)"/>
  <rect x="558" y="312" width="350" height="442" rx="30" fill="#0E1112" stroke="rgba(255,255,255,0.08)"/>
  <rect x="942" y="312" width="350" height="442" rx="30" fill="#0E1112" stroke="rgba(255,255,255,0.08)"/>
  <rect x="190" y="200" width="272" height="60" rx="20" fill="#141818" stroke="rgba(255,255,255,0.05)"/>
  <rect x="190" y="290" width="272" height="220" rx="28" fill="url(#phone)"/>
  <rect x="190" y="540" width="128" height="148" rx="24" fill="#101415" stroke="rgba(255,255,255,0.06)"/>
  <rect x="334" y="540" width="128" height="148" rx="24" fill="#121516" stroke="rgba(255,255,255,0.06)"/>
  <circle cx="326" cy="724" r="14" fill="rgba(255,255,255,0.18)"/>
  <rect x="598" y="182" width="184" height="62" rx="20" fill="#131717" stroke="rgba(255,255,255,0.06)"/>
  <rect x="804" y="182" width="206" height="62" rx="20" fill="#131717" stroke="rgba(255,255,255,0.06)"/>
  <rect x="1034" y="182" width="216" height="62" rx="20" fill="#131717" stroke="rgba(255,255,255,0.06)"/>
  <rect x="596" y="352" width="274" height="164" rx="28" fill="url(#card1)"/>
  <rect x="980" y="352" width="274" height="164" rx="28" fill="url(#card2)"/>
  <rect x="596" y="548" width="274" height="164" rx="28" fill="#101515" stroke="rgba(255,255,255,0.08)"/>
  <rect x="980" y="548" width="274" height="164" rx="28" fill="#101515" stroke="rgba(255,255,255,0.08)"/>
  <defs>
    <linearGradient id="bg" x1="160" y1="80" x2="1240" y2="820" gradientUnits="userSpaceOnUse">
      <stop stop-color="#080808"/>
      <stop offset="0.55" stop-color="#0B1010"/>
      <stop offset="1" stop-color="#0F0B09"/>
    </linearGradient>
    <radialGradient id="glow1" cx="0" cy="0" r="1" gradientUnits="userSpaceOnUse" gradientTransform="translate(1120 152) rotate(90) scale(210)">
      <stop stop-color="#FBBF24" stop-opacity="0.22"/>
      <stop offset="1" stop-color="#FBBF24" stop-opacity="0"/>
    </radialGradient>
    <radialGradient id="glow2" cx="0" cy="0" r="1" gradientUnits="userSpaceOnUse" gradientTransform="translate(240 726) rotate(90) scale(280)">
      <stop stop-color="#10B981" stop-opacity="0.2"/>
      <stop offset="1" stop-color="#10B981" stop-opacity="0"/>
    </radialGradient>
    <linearGradient id="phone" x1="190" y1="290" x2="462" y2="510" gradientUnits="userSpaceOnUse">
      <stop stop-color="#173227"/>
      <stop offset="1" stop-color="#122122"/>
    </linearGradient>
    <linearGradient id="card1" x1="596" y1="352" x2="870" y2="516" gradientUnits="userSpaceOnUse">
      <stop stop-color="#12292B"/>
      <stop offset="1" stop-color="#131517"/>
    </linearGradient>
    <linearGradient id="card2" x1="980" y1="352" x2="1254" y2="516" gradientUnits="userSpaceOnUse">
      <stop stop-color="#2C2112"/>
      <stop offset="1" stop-color="#171412"/>
    </linearGradient>
  </defs>
</svg>
